<?xml version="1.0" encoding="UTF-8" standalone="no"?>
<!-- Created with Inkscape (http://www.inkscape.org/) -->

<svg
   version="1.1"
   id="svg2"
   width="3261.3333"
   height="2454.6667"
   viewBox="0 0 3261.3333 2454.6667"
   xmlns="http://www.w3.org/2000/svg"
   xmlns:svg="http://www.w3.org/2000/svg">
  <defs
     id="defs6" />
  <g
     id="g10"
     transform="matrix(1.3333333,0,0,-1.3333333,0,2454.6667)">
    <g
       id="g12"
       transform="scale(0.1)">
      <path
         d="m 22811.8,13818.1 c -12.6,8.6 -25.3,16.7 -38,24.9 -1095.8,700 -3602.4,401.7 -5889.9,-232.3 -800.3,-221.4 -1442,-365.6 -1939.5,-459.6 -941,-177.4 -1365.3,-174.8 -1366,-174.8 -948.1,109 -1971.2,168.5 -3038.1,168.5 -4861.04,0 -8812.37,-1234.6 -8907.71,-2769.6 h -2.27 c 0,-13.1 0.46,-26.7 0.91,-40.3 0,-5.4 -0.91,-10.8 -0.91,-16.2 0,-0.6 0,-1.1 0.01,-1.7 0,-2.7 0.41,-5.4 0.45,-8.2 0.56,-51.8 5.13,-103.2 14.91,-154.1 7.23,-42.1 17.62,-83.7 31.18,-125.2 77.72,-317.25 267.52,-792.64 679.18,-1666.6 527.37,-1118.9 1138.77,-1947.7 1371.04,-2244.6 50.62,-65 99.87,-131 148.68,-197.4 740.65,-1004.6 3443.4,-1749.3 6664.53,-1749.3 1045.6,0 2036.6,78.6 2923.7,218.7 329.9,52.4 645.7,113 944,181.7 1387.8,318.1 2409.5,803 2810.8,1368.3 83.1,116.6 173,228.2 262.5,340.7 243.1,306 643.5,846.9 1046.1,1547.3 503,875.32 732.1,1562.65 836.5,2001.44 19,80.89 33.9,153.18 45.6,216.46 27.1,89.5 41.1,180.7 41.1,272.5 0,9.9 -0.9,19.9 -1.3,29.4 0.9,18 1.3,27.1 1.3,27.1 h -2.2 c -23.5,378.2 -281.5,738.1 -729.1,1065.9 1778.7,1842.9 2777.7,1718.8 3485.6,1673.4 753.8,-47.9 606.9,703.6 606.9,703.6"
         style="fill:#838687;fill-opacity:1;fill-rule:nonzero;stroke:none"
         id="path14" />
      <path
         d="m 16038,13007 c -273,-21.3 -547.3,-70.1 -816.1,-119.3 -137.8,-25.3 -273.7,-55.1 -408.1,-88.7 294.1,-51.1 578.3,-107.2 851.1,-168.2 253,76.8 509.2,151 765.8,216.2 -130.6,66 -262.6,118.9 -392.7,160"
         style="fill:#cacbc9;fill-opacity:1;fill-rule:nonzero;stroke:none"
         id="path16" />
      <path
         d="m 19450.6,10375.2 h -2.2 c -23.5,378.2 -281.5,738.1 -729.1,1065.9 -264.8,193.9 -595.7,376.5 -984.3,544.9 -160,69.3 -329.7,136.3 -508.5,200.7 -463.2,166.7 -987.5,315.9 -1561.6,444.1 -272.8,61 -557,117.1 -851.1,168.2 -394.7,68.5 -807.3,128 -1235.4,177.3 -948.1,109 -1971.2,168.5 -3038.1,168.5 -4861.04,0 -8812.37,-1234.6 -8907.71,-2769.6 h -2.27 c 0,-13.1 0.46,-26.7 0.91,-40.3 0,-5.4 -0.91,-10.8 -0.91,-16.2 0,-0.6 0,-1.1 0.01,-1.7 0,-2.7 0.41,-5.4 0.45,-8.2 0.56,-51.8 5.13,-103.2 14.91,-154.1 7.23,-42.1 17.62,-83.7 31.18,-125.2 77.72,-317.25 267.52,-792.64 679.18,-1666.6 527.37,-1118.9 1138.77,-1947.7 1371.04,-2244.6 50.62,-65 99.87,-131 148.68,-197.4 740.65,-1004.6 3443.4,-1749.3 6664.53,-1749.3 1045.6,0 2036.6,78.6 2923.7,218.7 329.9,52.4 645.7,113 944,181.7 1387.8,318.1 2409.5,803 2810.8,1368.3 83.1,116.6 173,228.2 262.5,340.7 243.1,306 643.5,846.9 1046.1,1547.3 503,875.32 732.1,1562.65 836.5,2001.44 19,80.89 33.9,153.18 45.6,216.46 27.1,89.5 41.1,180.7 41.1,272.5 0,9.9 -0.9,19.9 -1.3,29.4 0.9,18 1.3,27.1 1.3,27.1"
         style="fill:#442f2a;fill-opacity:1;fill-rule:nonzero;stroke:none"
         id="path18" />
      <path
         d="m 22811.8,13818.1 c -12.6,8.6 -25.3,16.7 -38,24.9 -1095.8,700 -3602.4,401.7 -5889.9,-232.3 -800.3,-221.4 -1442,-365.6 -1939.5,-459.6 253.9,9.1 662.5,-6.3 1093.6,-144.1 130.1,-41.1 262.1,-94 392.7,-160 285.1,-145.1 562.8,-356.1 795.8,-660.3 178.8,-64.4 348.5,-131.4 508.5,-200.7 388.6,-168.4 719.5,-351 984.3,-544.9 1778.7,1842.9 2777.7,1718.8 3485.6,1673.4 753.8,-47.9 606.9,703.6 606.9,703.6"
         style="fill:#2c2d2e;fill-opacity:1;fill-rule:nonzero;stroke:none"
         id="path20" />
      <path
         d="m 22773.8,13843 c -5.4,-25.3 -10.8,-50.2 -23,-72.8 -80.7,-149.2 -313.8,-48.7 -437.3,-29 -249.1,39.7 -493.1,5.8 -737.3,-49.2 -1392.2,-313.8 -2511.8,-1257.9 -3841.2,-1706 388.6,-168.4 719.5,-351 984.3,-544.9 1778.7,1842.9 2777.7,1718.8 3485.6,1673.4 753.8,-47.9 606.9,703.6 606.9,703.6 -12.6,8.6 -25.3,16.7 -38,24.9"
         style="fill:#242526;fill-opacity:1;fill-rule:nonzero;stroke:none"
         id="path22" />
      <path
         d="m 17188.7,12823.9 c 225.8,-87.9 503.7,99.8 714.7,179.7 234.6,88.8 472.2,167.8 705.9,258.4 487.4,188.9 1015.4,255.6 1516.4,400.3 35.5,10.3 26.7,60 -8.5,62.4 -558.5,38.9 -1115.5,-4.6 -1673.2,-43.8 -257.4,-18.1 -520.1,-83.4 -763.7,-167 -233.1,-80 -564.7,-175.3 -633.6,-439.9 -29.8,-114.5 38.2,-209.8 142,-250.1"
         style="fill:#373839;fill-opacity:1;fill-rule:nonzero;stroke:none"
         id="path24" />
      <path
         d="m 20770.9,13806.1 c 70.3,-14.6 160.1,-47.4 215.5,16 29.4,33.5 29.5,77.2 0,110.9 -55.3,63.3 -145.2,30.6 -215.5,16 -70.7,-14.6 -70.7,-128.3 0,-142.9"
         style="fill:#373839;fill-opacity:1;fill-rule:nonzero;stroke:none"
         id="path26" />
      <path
         d="m 19134.3,10227.9 c 0,-574.85 -564.8,-1107.63 -1529.2,-1546.42 -23.7,-10.81 -48.4,-21.36 -72.7,-32.05 -0.8,-0.41 -1.5,-1.11 -2.4,-1.49 -10.5,-4.65 -21.5,-9.14 -32.1,-13.76 -27.7,-12 -55.6,-23.94 -83.8,-35.8 -22.8,-9.61 -45.9,-19.14 -69.1,-28.64 -27.8,-11.39 -55.9,-22.71 -84.3,-33.96 -24.6,-9.72 -49.4,-19.36 -74.3,-28.96 -28,-10.8 -56.3,-21.55 -84.8,-32.18 -26.3,-9.84 -52.9,-19.56 -79.6,-29.26 -28.1,-10.18 -56.4,-20.32 -84.9,-30.36 -28.2,-9.92 -56.7,-19.72 -85.4,-29.62 -28.1,-9.5 -56.3,-19.1 -84.7,-28.5 -30,-10 -60.2,-19.8 -90.6,-29.6 -28.2,-9.1 -56.6,-18.2 -85.2,-27.2 -31.6,-9.8 -63.4,-19.6 -95.4,-29.3 -28.3,-8.6 -56.8,-17.2 -85.5,-25.7 -33.2,-9.8 -66.8,-19.5 -100.6,-29.2 -28.3,-8.1 -56.6,-16.2 -85.2,-24.2 -35,-9.7 -70.4,-19.3 -105.9,-28.9 -28.3,-7.6 -56.6,-15.3 -85.2,-22.8 -36.5,-9.6 -73.5,-19.1 -110.6,-28.5 -28.4,-7.2 -56.8,-14.4 -85.5,-21.5 -38,-9.5 -76.4,-18.7 -114.8,-27.9 -28.6,-6.8 -57.2,-13.7 -86,-20.4 -39.4,-9.2 -79.3,-18.2 -119.2,-27.2 -28.8,-6.4 -57.4,-12.9 -86.4,-19.3 -40.5,-8.9 -81.6,-17.6 -122.6,-26.2 -29.2,-6.2 -58.4,-12.4 -87.8,-18.4 -41.5,-8.6 -83.5,-16.9 -125.5,-25.2 -29.6,-5.9 -59.2,-11.8 -89.1,-17.5 -42.7,-8.2 -85.7,-16.2 -128.9,-24.2 -29.9,-5.5 -59.7,-11.1 -89.9,-16.6 -43.7,-7.8 -87.9,-15.5 -132.1,-23.1 -30.3,-5.2 -60.4,-10.5 -90.8,-15.6 -44.7,-7.5 -89.9,-14.8 -135.1,-22 -30.6,-5 -61.1,-9.9 -91.8,-14.7 -45.6,-7.1 -91.7,-14 -137.7,-20.8 -31.1,-4.7 -62.1,-9.4 -93.4,-13.9 -46.3,-6.7 -92.9,-13.1 -139.6,-19.5 -31.7,-4.3 -63.2,-8.8 -95,-13 -47,-6.2 -94.4,-12.2 -141.8,-18.2 -32.1,-4.1 -64.2,-8.2 -96.5,-12.2 -47.6,-5.8 -95.6,-11.3 -143.6,-16.8 -32.7,-3.8 -65.3,-7.7 -98.2,-11.3 -48.4,-5.4 -97.2,-10.5 -146,-15.6 -33,-3.4 -65.7,-7 -98.9,-10.3 -49,-5 -98.4,-9.6 -147.8,-14.2 -33.5,-3.2 -66.9,-6.5 -100.6,-9.5 -49.4,-4.4 -99.1,-8.5 -148.8,-12.7 -34.3,-2.9 -68.3,-5.9 -102.7,-8.6 -49.7,-3.9 -99.7,-7.6 -149.7,-11.2 -34.9,-2.6 -69.7,-5.3 -104.7,-7.8 -50.2,-3.4 -100.7,-6.5 -151.2,-9.8 -35.3,-2.2 -70.5,-4.6 -106,-6.7 -50.7,-3 -101.9,-5.6 -153,-8.4 -35.7,-1.9 -71.1,-3.9 -106.9,-5.7 -51.4,-2.5 -103.3,-4.7 -155.1,-6.9 -35.8,-1.6 -71.3,-3.3 -107.3,-4.7 -52.4,-2.1 -105.1,-3.7 -157.8,-5.5 -35.7,-1.2 -71.3,-2.6 -107.1,-3.6 -53.8,-1.6 -108,-2.8 -162.1,-4.1 -35.1,-0.8 -70,-1.8 -105.1,-2.5 -59.1,-1.2 -118.5,-1.9 -177.9,-2.7 -30.5,-0.3 -60.8,-1 -91.3,-1.3 -90.1,-0.9 -180.5,-1.3 -271.2,-1.3 v 0 0 h -0.3 c -90.6,0 -180.9,0.4 -270.9,1.3 -30.7,0.3 -61,1 -91.6,1.4 -59.3,0.7 -118.6,1.4 -177.57,2.6 -35.27,0.7 -70.24,1.7 -105.4,2.6 -53.98,1.2 -108.06,2.4 -161.76,4 -35.99,1 -71.67,2.4 -107.54,3.6 -52.51,1.8 -105.12,3.4 -157.35,5.5 -36.06,1.4 -71.81,3.1 -107.73,4.7 -51.62,2.2 -103.34,4.4 -154.67,6.9 -35.83,1.8 -71.32,3.8 -107,5.7 -51.03,2.8 -102.16,5.4 -152.86,8.4 -35.61,2.1 -70.86,4.5 -106.31,6.8 -50.34,3.2 -100.77,6.3 -150.78,9.7 -35.19,2.5 -70.02,5.2 -105.05,7.8 -49.88,3.6 -99.83,7.3 -149.36,11.2 -34.51,2.8 -68.66,5.8 -103,8.6 -49.57,4.2 -99.21,8.3 -148.41,12.7 -33.88,3.1 -67.41,6.4 -101.13,9.5 -49.21,4.7 -98.48,9.2 -147.32,14.1 -33.27,3.4 -66.18,7 -99.28,10.4 -48.64,5.1 -97.34,10.2 -145.6,15.5 -33.02,3.7 -65.7,7.6 -98.55,11.4 -47.85,5.5 -95.75,11 -143.19,16.8 -32.45,4 -64.54,8.1 -96.81,12.2 -47.29,6 -94.6,12 -141.47,18.2 -31.96,4.2 -63.56,8.7 -95.32,13 -46.55,6.5 -93.11,12.8 -139.24,19.5 -31.43,4.5 -62.52,9.2 -93.76,13.9 -45.93,6.8 -91.87,13.7 -137.36,20.8 -30.85,4.8 -61.35,9.8 -91.99,14.7 -45.13,7.2 -90.24,14.5 -134.91,22 -30.52,5.1 -60.69,10.4 -90.98,15.6 -44.15,7.6 -88.28,15.3 -131.95,23.1 -30.24,5.5 -60.12,11.1 -90.13,16.6 -43.04,8 -86.04,16 -128.6,24.2 -29.97,5.7 -59.59,11.6 -89.32,17.5 -41.95,8.3 -83.86,16.6 -125.32,25.1 -29.46,6.1 -58.6,12.3 -87.83,18.5 -41.08,8.7 -82.08,17.3 -122.67,26.2 -28.95,6.4 -57.59,12.9 -86.29,19.3 -39.92,9 -79.76,18 -119.18,27.2 -28.91,6.7 -57.51,13.6 -86.15,20.4 -38.42,9.2 -76.75,18.4 -114.66,27.8 -28.74,7.2 -57.17,14.4 -85.61,21.6 -37.05,9.4 -73.99,18.9 -110.53,28.5 -28.63,7.5 -56.94,15.2 -85.27,22.8 -35.46,9.6 -70.82,19.2 -105.78,28.9 -28.63,8 -56.95,16.1 -85.24,24.2 -33.76,9.7 -67.41,19.4 -100.68,29.2 -28.69,8.5 -57.05,17.1 -85.37,25.7 -32.04,9.7 -63.93,19.5 -95.49,29.4 -28.58,8.9 -56.85,18 -85.03,27 -30.47,9.9 -60.8,19.7 -90.8,29.7 -28.4,9.4 -56.48,18.9 -84.45,28.5 -28.77,9.8 -57.4,19.7 -85.72,29.68 -28.45,10.01 -56.58,20.1 -84.56,30.24 -26.84,9.73 -53.5,19.5 -79.89,29.36 -28.46,10.61 -56.61,21.32 -84.55,32.07 -25.07,9.64 -49.97,19.34 -74.62,29.1 -28.27,11.21 -56.24,22.47 -83.97,33.8 -23.33,9.55 -46.47,19.14 -69.42,28.78 -28.13,11.82 -55.94,23.72 -83.46,35.68 -10.66,4.64 -21.77,9.17 -32.33,13.83 -0.88,0.38 -1.55,1.08 -2.42,1.5 -24.21,10.68 -48.93,21.23 -72.66,32.04 -963.89,438.79 -1529.2,971.57 -1529.2,1546.42 0,775.4 1028.51,1474.5 2678.36,1969.3 796.22,239 1737.06,430.2 2776.87,558.5 972.02,121.2 2030.79,187.1 3138.42,187.1 4746.6,0 8594,-1215.6 8594,-2714.9 z m -1907.8,1958.8 c -463.2,166.7 -987.5,315.9 -1561.6,444.1 -272.8,61 -557,117.1 -851.1,168.2 -394.7,68.5 -807.3,128 -1235.4,177.3 -948.1,109 -1971.2,168.5 -3038.1,168.5 -4861.04,0 -8812.37,-1234.6 -8907.71,-2769.6 h -2.27 c 0,-13.1 0.46,-26.7 0.91,-40.3 0,-5.4 -0.91,-10.8 -0.91,-16.2 0,-0.6 0,-1.1 0.01,-1.7 0,-2.7 0.41,-5.4 0.45,-8.2 1.31,-89.6 21.01,-177.9 52.7,-261.8 130.74,-346.04 341.53,-666.06 598.01,-934.41 C 2737.45,8636.29 3327.18,8307.8 3934.97,8051.1 5110.79,7554 6256.78,7474.9 7494.51,7302.3 8346.68,7183.5 9203.7,7087.1 10064.6,7068 c 855.9,-19 1725,166.2 2574.8,105.1 722.3,-51.8 989.8,-550.6 1089.9,-1207.5 71.4,-465.9 132.8,-981.9 -129.3,-1374.2 -42,-63.3 -93.1,-131.5 -136,-201.1 329.9,52.4 645.7,113 944,181.7 -51.5,51.5 -90.8,112 -113.4,184.8 -53.3,173.5 13.5,358.4 80.4,526.9 159.1,400.8 324.9,799 497.1,1194.4 143.2,328.9 308,661.2 554.6,925.6 94.1,100.9 197.2,194.2 311.7,271.4 297.3,200.3 655.3,283.3 996.8,392 884.4,281.5 1750.3,747.98 2374.7,1441.8 90,100.32 176.7,207.42 254,320.84 19,80.89 33.9,153.18 45.6,216.46 27.1,89.5 41.1,180.7 41.1,272.5 0,9.9 -0.9,19.9 -1.3,29.4 0.9,18 1.3,27.1 1.3,27.1 h -2.2 c -23.5,378.2 -281.5,738.1 -729.1,1065.9 -264.8,193.9 -595.7,376.5 -984.3,544.9 -160,69.3 -329.7,136.3 -508.5,200.7"
         style="fill:#5e433d;fill-opacity:1;fill-rule:nonzero;stroke:none"
         id="path28" />
      <path
         d="m 16851.7,8385.4 c -28.1,-9.5 -56.3,-19.1 -84.7,-28.5 28.4,9.4 56.6,19 84.7,28.5"
         style="fill:#34231f;fill-opacity:1;fill-rule:nonzero;stroke:none"
         id="path30" />
      <path
         d="m 13489.7,7677.3 c -32.7,-3.8 -65.3,-7.7 -98.2,-11.3 32.9,3.6 65.5,7.5 98.2,11.3"
         style="fill:#34231f;fill-opacity:1;fill-rule:nonzero;stroke:none"
         id="path32" />
      <path
         d="m 13245.5,7650.4 c -33,-3.4 -65.7,-7 -98.9,-10.3 33.2,3.3 65.9,6.9 98.9,10.3"
         style="fill:#34231f;fill-opacity:1;fill-rule:nonzero;stroke:none"
         id="path34" />
      <path
         d="m 12998.8,7625.9 c -33.5,-3.2 -66.9,-6.5 -100.6,-9.5 33.7,3 67.1,6.3 100.6,9.5"
         style="fill:#34231f;fill-opacity:1;fill-rule:nonzero;stroke:none"
         id="path36" />
      <path
         d="m 12749.4,7603.7 c -34.3,-2.9 -68.3,-5.9 -102.7,-8.6 34.4,2.7 68.4,5.7 102.7,8.6"
         style="fill:#34231f;fill-opacity:1;fill-rule:nonzero;stroke:none"
         id="path38" />
      <path
         d="m 14429.1,7806.4 c -30.6,-5 -61.1,-9.9 -91.8,-14.7 30.7,4.8 61.2,9.7 91.8,14.7"
         style="fill:#34231f;fill-opacity:1;fill-rule:nonzero;stroke:none"
         id="path40" />
      <path
         d="m 13729.8,7706.3 c -32.1,-4.1 -64.2,-8.2 -96.5,-12.2 32.3,4 64.4,8.1 96.5,12.2"
         style="fill:#34231f;fill-opacity:1;fill-rule:nonzero;stroke:none"
         id="path42" />
      <path
         d="m 14199.6,7770.9 c -31.1,-4.7 -62.1,-9.4 -93.4,-13.9 31.3,4.5 62.3,9.2 93.4,13.9"
         style="fill:#34231f;fill-opacity:1;fill-rule:nonzero;stroke:none"
         id="path44" />
      <path
         d="m 10269.1,7514.2 c -30.7,0.3 -61,1 -91.6,1.4 30.6,-0.4 60.9,-1.1 91.6,-1.4"
         style="fill:#34231f;fill-opacity:1;fill-rule:nonzero;stroke:none"
         id="path46" />
      <path
         d="m 12497,7583.9 c -34.9,-2.6 -69.6,-5.3 -104.7,-7.8 35,2.5 69.8,5.2 104.7,7.8"
         style="fill:#34231f;fill-opacity:1;fill-rule:nonzero;stroke:none"
         id="path48" />
      <path
         d="m 10902.8,7515.5 c -30.5,-0.3 -60.8,-1 -91.3,-1.3 30.5,0.3 60.8,1 91.3,1.3"
         style="fill:#34231f;fill-opacity:1;fill-rule:nonzero;stroke:none"
         id="path50" />
      <path
         d="m 11185.8,7520.7 c -35.1,-0.8 -70,-1.8 -105.1,-2.5 35.1,0.7 70,1.7 105.1,2.5"
         style="fill:#34231f;fill-opacity:1;fill-rule:nonzero;stroke:none"
         id="path52" />
      <path
         d="m 10540.3,7512.9 v 0 h -0.3 z"
         style="fill:#34231f;fill-opacity:1;fill-rule:nonzero;stroke:none"
         id="path54" />
      <path
         d="m 11455,7528.4 c -35.7,-1.2 -71.3,-2.6 -107.1,-3.6 35.8,1 71.4,2.4 107.1,3.6"
         style="fill:#34231f;fill-opacity:1;fill-rule:nonzero;stroke:none"
         id="path56" />
      <path
         d="m 11982.1,7551.2 c -35.7,-1.9 -71.1,-3.9 -106.9,-5.7 35.8,1.8 71.2,3.8 106.9,5.7"
         style="fill:#34231f;fill-opacity:1;fill-rule:nonzero;stroke:none"
         id="path58" />
      <path
         d="m 12241.1,7566.3 c -35.3,-2.2 -70.5,-4.6 -106,-6.7 35.5,2.1 70.7,4.5 106,6.7"
         style="fill:#34231f;fill-opacity:1;fill-rule:nonzero;stroke:none"
         id="path60" />
      <path
         d="m 11720.1,7538.6 c -35.8,-1.6 -71.3,-3.3 -107.3,-4.7 36,1.4 71.5,3.1 107.3,4.7"
         style="fill:#34231f;fill-opacity:1;fill-rule:nonzero;stroke:none"
         id="path62" />
      <path
         d="m 13966.6,7737.5 c -31.7,-4.3 -63.2,-8.8 -95,-13 31.8,4.2 63.3,8.7 95,13"
         style="fill:#34231f;fill-opacity:1;fill-rule:nonzero;stroke:none"
         id="path64" />
      <path
         d="m 14655,7844 c -30.3,-5.2 -60.4,-10.5 -90.8,-15.6 30.4,5.1 60.5,10.4 90.8,15.6"
         style="fill:#34231f;fill-opacity:1;fill-rule:nonzero;stroke:none"
         id="path66" />
      <path
         d="m 17022,8445.38 c -28.1,-10.18 -56.4,-20.32 -84.9,-30.36 28.5,10.04 56.8,20.18 84.9,30.36"
         style="fill:#34231f;fill-opacity:1;fill-rule:nonzero;stroke:none"
         id="path68" />
      <path
         d="m 16309.7,8215.9 c -28.3,-8.1 -56.6,-16.2 -85.2,-24.2 28.6,8 56.9,16.1 85.2,24.2"
         style="fill:#34231f;fill-opacity:1;fill-rule:nonzero;stroke:none"
         id="path70" />
      <path
         d="m 16495.8,8270.8 c -28.3,-8.6 -56.8,-17.2 -85.5,-25.7 28.7,8.5 57.2,17.1 85.5,25.7"
         style="fill:#34231f;fill-opacity:1;fill-rule:nonzero;stroke:none"
         id="path72" />
      <path
         d="m 17497.9,8634.18 c -27.7,-12.02 -55.6,-23.94 -83.8,-35.8 28.2,11.86 56.1,23.8 83.8,35.8"
         style="fill:#34231f;fill-opacity:1;fill-rule:nonzero;stroke:none"
         id="path74" />
      <path
         d="m 17345,8569.74 c -27.8,-11.39 -55.9,-22.71 -84.3,-33.96 28.4,11.25 56.5,22.57 84.3,33.96"
         style="fill:#34231f;fill-opacity:1;fill-rule:nonzero;stroke:none"
         id="path76" />
      <path
         d="m 17186.4,8506.82 c -28,-10.8 -56.3,-21.55 -84.8,-32.18 28.5,10.63 56.8,21.38 84.8,32.18"
         style="fill:#34231f;fill-opacity:1;fill-rule:nonzero;stroke:none"
         id="path78" />
      <path
         d="m 16676.4,8327.3 c -28.2,-9.1 -56.6,-18.2 -85.2,-27.2 28.6,9 57,18.1 85.2,27.2"
         style="fill:#34231f;fill-opacity:1;fill-rule:nonzero;stroke:none"
         id="path80" />
      <path
         d="m 15095,7925.4 c -29.6,-5.9 -59.2,-11.8 -89.1,-17.5 29.9,5.7 59.5,11.6 89.1,17.5"
         style="fill:#34231f;fill-opacity:1;fill-rule:nonzero;stroke:none"
         id="path82" />
      <path
         d="m 15308.3,7969 c -29.2,-6.2 -58.4,-12.4 -87.8,-18.4 29.4,6 58.6,12.2 87.8,18.4"
         style="fill:#34231f;fill-opacity:1;fill-rule:nonzero;stroke:none"
         id="path84" />
      <path
         d="m 14877,7883.7 c -29.9,-5.5 -59.7,-11.1 -89.9,-16.6 30.2,5.5 60,11.1 89.9,16.6"
         style="fill:#34231f;fill-opacity:1;fill-rule:nonzero;stroke:none"
         id="path86" />
      <path
         d="m 15517.3,8014.5 c -28.8,-6.4 -57.4,-12.9 -86.4,-19.3 29,6.4 57.6,12.9 86.4,19.3"
         style="fill:#34231f;fill-opacity:1;fill-rule:nonzero;stroke:none"
         id="path88" />
      <path
         d="m 16118.6,8162.8 c -28.3,-7.6 -56.6,-15.3 -85.2,-22.8 28.6,7.5 56.9,15.2 85.2,22.8"
         style="fill:#34231f;fill-opacity:1;fill-rule:nonzero;stroke:none"
         id="path90" />
      <path
         d="m 15922.8,8111.5 c -28.4,-7.2 -56.8,-14.4 -85.5,-21.5 28.7,7.1 57.1,14.3 85.5,21.5"
         style="fill:#34231f;fill-opacity:1;fill-rule:nonzero;stroke:none"
         id="path92" />
      <path
         d="m 15722.5,8062.1 c -28.6,-6.8 -57.2,-13.7 -86,-20.4 28.8,6.7 57.4,13.6 86,20.4"
         style="fill:#34231f;fill-opacity:1;fill-rule:nonzero;stroke:none"
         id="path94" />
      <path
         d="m 6974.8,7757 c -31.43,4.5 -62.52,9.2 -93.76,13.9 31.24,-4.7 62.33,-9.4 93.76,-13.9"
         style="fill:#34231f;fill-opacity:1;fill-rule:nonzero;stroke:none"
         id="path96" />
      <path
         d="m 5243.7,8089.9 c -28.74,7.2 -57.17,14.4 -85.61,21.6 28.44,-7.2 56.87,-14.4 85.61,-21.6"
         style="fill:#34231f;fill-opacity:1;fill-rule:nonzero;stroke:none"
         id="path98" />
      <path
         d="m 5047.56,8140 c -28.63,7.5 -56.95,15.2 -85.27,22.8 28.33,-7.6 56.64,-15.3 85.27,-22.8"
         style="fill:#34231f;fill-opacity:1;fill-rule:nonzero;stroke:none"
         id="path100" />
      <path
         d="m 4856.51,8191.7 c -28.63,8 -56.95,16.1 -85.24,24.2 28.29,-8.1 56.61,-16.2 85.24,-24.2"
         style="fill:#34231f;fill-opacity:1;fill-rule:nonzero;stroke:none"
         id="path102" />
      <path
         d="m 5444.51,8041.7 c -28.91,6.7 -57.51,13.6 -86.15,20.4 28.64,-6.8 57.24,-13.7 86.15,-20.4"
         style="fill:#34231f;fill-opacity:1;fill-rule:nonzero;stroke:none"
         id="path104" />
      <path
         d="m 4670.59,8245.1 c -28.69,8.5 -57.05,17.1 -85.37,25.7 28.32,-8.6 56.68,-17.2 85.37,-25.7"
         style="fill:#34231f;fill-opacity:1;fill-rule:nonzero;stroke:none"
         id="path106" />
      <path
         d="m 5860.48,7950.5 c -29.46,6.1 -58.61,12.3 -87.83,18.5 29.23,-6.2 58.37,-12.4 87.83,-18.5"
         style="fill:#34231f;fill-opacity:1;fill-rule:nonzero;stroke:none"
         id="path108" />
      <path
         d="m 5649.98,7995.2 c -28.95,6.4 -57.59,12.9 -86.29,19.3 28.7,-6.4 57.34,-12.9 86.29,-19.3"
         style="fill:#34231f;fill-opacity:1;fill-rule:nonzero;stroke:none"
         id="path110" />
      <path
         d="m 4143.73,8415.08 c -28.44,9.99 -56.59,20.1 -84.56,30.24 27.98,-10.14 56.11,-20.23 84.56,-30.24"
         style="fill:#34231f;fill-opacity:1;fill-rule:nonzero;stroke:none"
         id="path112" />
      <path
         d="m 3820.11,8535.85 c -28.27,11.19 -56.24,22.47 -83.97,33.8 27.73,-11.33 55.7,-22.59 83.97,-33.8"
         style="fill:#34231f;fill-opacity:1;fill-rule:nonzero;stroke:none"
         id="path114" />
      <path
         d="m 9999.93,7518.2 c -35.27,0.7 -70.24,1.7 -105.4,2.6 35.16,-0.9 70.13,-1.9 105.4,-2.6"
         style="fill:#34231f;fill-opacity:1;fill-rule:nonzero;stroke:none"
         id="path116" />
      <path
         d="m 3470.28,8768.09 v 0.87 c 0,711.54 1071.87,1344.44 2737.18,1749.44 -39.06,349.4 -186.86,697.2 -351.95,1013.6 -103.95,198.9 -220.98,400.4 -404.89,529.2 -148.68,103.9 -519.23,99.8 -825.61,136 -1649.85,-494.8 -2678.36,-1193.9 -2678.36,-1969.3 0,-574.85 565.31,-1107.63 1529.2,-1546.42 23.73,-10.81 48.45,-21.36 72.66,-32.04 -46.46,21.65 -78.17,67.43 -78.23,118.65"
         style="fill:#34231f;fill-opacity:1;fill-rule:nonzero;stroke:none"
         id="path118" />
      <path
         d="m 4489.73,8300.2 c -28.58,8.9 -56.86,18 -85.03,27 28.18,-9 56.45,-18.1 85.03,-27"
         style="fill:#34231f;fill-opacity:1;fill-rule:nonzero;stroke:none"
         id="path120" />
      <path
         d="m 4313.9,8356.9 c -28.39,9.4 -56.48,18.9 -84.45,28.5 27.97,-9.6 56.05,-19.1 84.45,-28.5"
         style="fill:#34231f;fill-opacity:1;fill-rule:nonzero;stroke:none"
         id="path122" />
      <path
         d="m 6075.12,7907.9 c -29.97,5.7 -59.59,11.6 -89.32,17.5 29.73,-5.9 59.35,-11.8 89.32,-17.5"
         style="fill:#34231f;fill-opacity:1;fill-rule:nonzero;stroke:none"
         id="path124" />
      <path
         d="m 3979.28,8474.68 c -28.45,10.61 -56.61,21.32 -84.55,32.07 27.94,-10.75 56.09,-21.46 84.55,-32.07"
         style="fill:#34231f;fill-opacity:1;fill-rule:nonzero;stroke:none"
         id="path126" />
      <path
         d="m 3666.72,8598.43 c -28.12,11.82 -55.95,23.72 -83.46,35.68 27.52,-11.96 55.33,-23.86 83.46,-35.68"
         style="fill:#34231f;fill-opacity:1;fill-rule:nonzero;stroke:none"
         id="path128" />
      <path
         d="m 8688.53,7576.1 c -35.19,2.5 -70.02,5.2 -105.05,7.8 35.03,-2.6 69.86,-5.3 105.05,-7.8"
         style="fill:#34231f;fill-opacity:1;fill-rule:nonzero;stroke:none"
         id="path130" />
      <path
         d="m 8945.62,7559.6 c -35.61,2.1 -70.86,4.5 -106.31,6.8 35.45,-2.3 70.7,-4.7 106.31,-6.8"
         style="fill:#34231f;fill-opacity:1;fill-rule:nonzero;stroke:none"
         id="path132" />
      <path
         d="m 8434.12,7595.1 c -34.51,2.8 -68.66,5.8 -103,8.6 34.34,-2.8 68.49,-5.8 103,-8.6"
         style="fill:#34231f;fill-opacity:1;fill-rule:nonzero;stroke:none"
         id="path134" />
      <path
         d="m 9732.77,7524.8 c -35.99,1 -71.67,2.4 -107.54,3.6 35.87,-1.2 71.55,-2.6 107.54,-3.6"
         style="fill:#34231f;fill-opacity:1;fill-rule:nonzero;stroke:none"
         id="path136" />
      <path
         d="m 8182.71,7616.4 c -33.88,3.1 -67.41,6.4 -101.13,9.5 33.72,-3.1 67.25,-6.4 101.13,-9.5"
         style="fill:#34231f;fill-opacity:1;fill-rule:nonzero;stroke:none"
         id="path138" />
      <path
         d="m 6293.85,7867.1 c -30.24,5.5 -60.13,11.1 -90.13,16.6 30.01,-5.5 59.89,-11.1 90.13,-16.6"
         style="fill:#34231f;fill-opacity:1;fill-rule:nonzero;stroke:none"
         id="path140" />
      <path
         d="m 9467.88,7533.9 c -36.06,1.4 -71.81,3.1 -107.73,4.7 35.92,-1.6 71.67,-3.3 107.73,-4.7"
         style="fill:#34231f;fill-opacity:1;fill-rule:nonzero;stroke:none"
         id="path142" />
      <path
         d="m 9205.48,7545.5 c -35.83,1.8 -71.32,3.8 -107,5.7 35.68,-1.9 71.17,-3.9 107,-5.7"
         style="fill:#34231f;fill-opacity:1;fill-rule:nonzero;stroke:none"
         id="path144" />
      <path
         d="m 6743.68,7791.7 c -30.85,4.8 -61.36,9.8 -91.99,14.7 30.64,-4.9 61.14,-9.9 91.99,-14.7"
         style="fill:#34231f;fill-opacity:1;fill-rule:nonzero;stroke:none"
         id="path146" />
      <path
         d="m 7934.26,7640 c -33.27,3.4 -66.18,7 -99.28,10.4 33.1,-3.4 66.01,-7 99.28,-10.4"
         style="fill:#34231f;fill-opacity:1;fill-rule:nonzero;stroke:none"
         id="path148" />
      <path
         d="m 7209.36,7724.5 c -31.96,4.2 -63.56,8.7 -95.32,13 31.76,-4.3 63.36,-8.8 95.32,-13"
         style="fill:#34231f;fill-opacity:1;fill-rule:nonzero;stroke:none"
         id="path150" />
      <path
         d="m 6516.78,7828.4 c -30.51,5.1 -60.69,10.4 -90.98,15.6 30.29,-5.2 60.46,-10.5 90.98,-15.6"
         style="fill:#34231f;fill-opacity:1;fill-rule:nonzero;stroke:none"
         id="path152" />
      <path
         d="m 7689.38,7665.9 c -33.02,3.7 -65.7,7.6 -98.55,11.4 32.85,-3.8 65.53,-7.7 98.55,-11.4"
         style="fill:#34231f;fill-opacity:1;fill-rule:nonzero;stroke:none"
         id="path154" />
      <path
         d="m 7447.64,7694.1 c -32.45,4 -64.55,8.1 -96.81,12.2 32.27,-4.1 64.36,-8.2 96.81,-12.2"
         style="fill:#34231f;fill-opacity:1;fill-rule:nonzero;stroke:none"
         id="path156" />
      <path
         d="m 10540.3,12942.8 c -1107.63,0 -2166.4,-65.9 -3138.42,-187.1 -427.05,-362.4 -852.28,-824.7 -848.21,-1384.6 1.98,-255.5 95.35,-500.2 211.34,-730 122.34,24.2 247.21,47.3 374.47,69.2 270.1,184.8 602.87,322.6 968.9,372.1 16.29,7.9 35.02,10.1 52.88,6.5 79.48,8.8 160.32,13.8 242.45,13.8 293.63,0 571.94,-59.3 821.97,-158.2 426,25.1 865.32,38.4 1314.62,38.4 3904.9,0 7070.4,-991.02 7070.4,-2213.94 v -0.87 c -0.1,-51.22 -31.8,-97.02 -78.3,-118.66 24.3,10.69 49,21.24 72.7,32.05 964.4,438.79 1529.2,971.57 1529.2,1546.42 0,1499.3 -3847.4,2714.9 -8594,2714.9"
         style="fill:#34231f;fill-opacity:1;fill-rule:nonzero;stroke:none"
         id="path158" />
      <path
         d="m 10540.3,10982.9 c -449.3,0 -888.62,-13.3 -1314.62,-38.4 -250.03,98.9 -528.34,158.2 -821.97,158.2 -82.13,0 -162.97,-5 -242.45,-13.8 -17.86,3.6 -36.59,1.4 -52.88,-6.5 -366.03,-49.5 -698.8,-187.3 -968.9,-372.1 -127.26,-21.9 -252.13,-45 -374.47,-69.2 -192.33,-38.2 -378.37,-79.1 -557.55,-122.7 -1665.31,-405 -2737.18,-1037.9 -2737.18,-1749.44 v -0.87 c 0.06,-51.22 31.77,-97 78.23,-118.65 0.87,-0.42 1.54,-1.12 2.42,-1.5 10.56,-4.66 21.67,-9.19 32.33,-13.83 27.51,-11.96 55.34,-23.86 83.46,-35.68 22.95,-9.64 46.09,-19.23 69.42,-28.78 27.73,-11.33 55.7,-22.61 83.97,-33.8 24.65,-9.76 49.55,-19.46 74.62,-29.1 27.94,-10.75 56.1,-21.46 84.55,-32.07 26.39,-9.86 53.05,-19.63 79.89,-29.36 27.97,-10.14 56.12,-20.25 84.56,-30.24 28.32,-9.98 56.95,-19.88 85.72,-29.68 27.97,-9.6 56.06,-19.1 84.45,-28.5 30,-10 60.33,-19.8 90.8,-29.7 28.17,-9 56.45,-18.1 85.03,-27 31.56,-9.9 63.45,-19.7 95.49,-29.4 28.32,-8.6 56.68,-17.2 85.37,-25.7 33.27,-9.8 66.92,-19.5 100.68,-29.2 28.29,-8.1 56.61,-16.2 85.24,-24.2 34.96,-9.7 70.32,-19.3 105.78,-28.9 28.32,-7.6 56.64,-15.3 85.27,-22.8 36.54,-9.6 73.48,-19.1 110.53,-28.5 28.44,-7.2 56.87,-14.4 85.61,-21.6 37.91,-9.4 76.24,-18.6 114.66,-27.8 28.64,-6.8 57.24,-13.7 86.15,-20.4 39.42,-9.2 79.26,-18.2 119.18,-27.2 28.7,-6.4 57.34,-12.9 86.29,-19.3 40.59,-8.9 81.59,-17.5 122.67,-26.2 29.22,-6.2 58.37,-12.4 87.83,-18.5 41.46,-8.5 83.37,-16.8 125.32,-25.1 29.73,-5.9 59.35,-11.8 89.32,-17.5 42.56,-8.2 85.56,-16.2 128.6,-24.2 30,-5.5 59.89,-11.1 90.13,-16.6 43.67,-7.8 87.8,-15.5 131.95,-23.1 30.29,-5.2 60.47,-10.5 90.98,-15.6 44.67,-7.5 89.78,-14.8 134.91,-22 30.63,-4.9 61.14,-9.9 91.99,-14.7 45.49,-7.1 91.43,-14 137.36,-20.8 31.24,-4.7 62.33,-9.4 93.76,-13.9 46.13,-6.7 92.69,-13 139.24,-19.5 31.76,-4.3 63.36,-8.8 95.32,-13 46.87,-6.2 94.18,-12.2 141.47,-18.2 32.26,-4.1 64.36,-8.2 96.81,-12.2 47.44,-5.8 95.34,-11.3 143.19,-16.8 32.85,-3.8 65.53,-7.7 98.55,-11.4 48.26,-5.3 96.96,-10.4 145.6,-15.5 33.1,-3.4 66.01,-7 99.28,-10.4 48.84,-4.9 98.11,-9.4 147.32,-14.1 33.72,-3.1 67.25,-6.4 101.13,-9.5 49.2,-4.4 98.84,-8.5 148.41,-12.7 34.34,-2.8 68.49,-5.8 103,-8.6 49.53,-3.9 99.48,-7.6 149.36,-11.2 35.03,-2.6 69.86,-5.3 105.05,-7.8 50.01,-3.4 100.44,-6.5 150.78,-9.7 35.45,-2.3 70.7,-4.7 106.31,-6.8 50.7,-3 101.83,-5.6 152.86,-8.4 35.68,-1.9 71.17,-3.9 107,-5.7 51.33,-2.5 103.05,-4.7 154.67,-6.9 35.92,-1.6 71.67,-3.3 107.73,-4.7 52.23,-2.1 104.84,-3.7 157.35,-5.5 35.87,-1.2 71.55,-2.6 107.54,-3.6 53.7,-1.6 107.78,-2.8 161.76,-4 35.16,-0.9 70.13,-1.9 105.4,-2.6 58.97,-1.2 118.27,-1.9 177.57,-2.6 30.6,-0.4 60.9,-1.1 91.6,-1.4 90,-0.9 180.3,-1.3 270.9,-1.3 h 0.3 c 90.7,0 181.1,0.4 271.2,1.3 30.5,0.3 60.8,1 91.3,1.3 59.4,0.8 118.8,1.5 177.9,2.7 35.1,0.7 70,1.7 105.1,2.5 54.1,1.3 108.3,2.5 162.1,4.1 35.8,1 71.4,2.4 107.1,3.6 52.7,1.8 105.4,3.4 157.8,5.5 36,1.4 71.5,3.1 107.3,4.7 51.8,2.2 103.7,4.4 155.1,6.9 35.8,1.8 71.2,3.8 106.9,5.7 51.1,2.8 102.3,5.4 153,8.4 35.5,2.1 70.7,4.5 106,6.7 50.5,3.3 101,6.4 151.2,9.8 35.1,2.5 69.8,5.2 104.7,7.8 50,3.6 100,7.3 149.7,11.2 34.4,2.7 68.4,5.7 102.7,8.6 49.7,4.2 99.4,8.3 148.8,12.7 33.7,3 67.1,6.3 100.6,9.5 49.4,4.6 98.8,9.2 147.8,14.2 33.2,3.3 65.9,6.9 98.9,10.3 48.8,5.1 97.6,10.2 146,15.6 32.9,3.6 65.5,7.5 98.2,11.3 48,5.5 96,11 143.6,16.8 32.3,4 64.4,8.1 96.5,12.2 47.4,6 94.8,12 141.8,18.2 31.8,4.2 63.3,8.7 95,13 46.7,6.4 93.3,12.8 139.6,19.5 31.3,4.5 62.3,9.2 93.4,13.9 46,6.8 92.1,13.7 137.7,20.8 30.7,4.8 61.2,9.7 91.8,14.7 45.2,7.2 90.4,14.5 135.1,22 30.4,5.1 60.5,10.4 90.8,15.6 44.2,7.6 88.4,15.3 132.1,23.1 30.2,5.5 60,11.1 89.9,16.6 43.2,8 86.2,16 128.9,24.2 29.9,5.7 59.5,11.6 89.1,17.5 42,8.3 84,16.6 125.5,25.2 29.4,6 58.6,12.2 87.8,18.4 41,8.6 82.1,17.3 122.6,26.2 29,6.4 57.6,12.9 86.4,19.3 39.9,9 79.8,18 119.2,27.2 28.8,6.7 57.4,13.6 86,20.4 38.4,9.2 76.8,18.4 114.8,27.9 28.7,7.1 57.1,14.3 85.5,21.5 37.1,9.4 74.1,18.9 110.6,28.5 28.6,7.5 56.9,15.2 85.2,22.8 35.5,9.6 70.9,19.2 105.9,28.9 28.6,8 56.9,16.1 85.2,24.2 33.8,9.7 67.4,19.4 100.6,29.2 28.7,8.5 57.2,17.1 85.5,25.7 32,9.7 63.8,19.5 95.4,29.3 28.6,9 57,18.1 85.2,27.2 30.4,9.8 60.6,19.6 90.6,29.6 28.4,9.4 56.6,19 84.7,28.5 28.7,9.9 57.2,19.7 85.4,29.62 28.5,10.04 56.8,20.18 84.9,30.36 26.7,9.7 53.3,19.42 79.6,29.26 28.5,10.63 56.8,21.38 84.8,32.18 24.9,9.6 49.7,19.24 74.3,28.96 28.4,11.25 56.5,22.57 84.3,33.96 23.2,9.5 46.3,19.03 69.1,28.64 28.2,11.86 56.1,23.78 83.8,35.8 10.6,4.62 21.6,9.11 32.1,13.76 0.9,0.38 1.6,1.08 2.4,1.49 46.5,21.64 78.2,67.44 78.3,118.66 v 0.87 c 0,1222.92 -3165.5,2213.94 -7070.4,2213.94"
         style="fill:#fdedba;fill-opacity:1;fill-rule:nonzero;stroke:none"
         id="path160" />
      <path
         d="m 7701.49,8564 c -321.35,74.98 -662.94,128.48 -936.56,324.36 -284.73,203.85 -418.59,447.15 -566.32,753.93 -43.46,90.28 -173.9,39.58 -177.62,-48.11 -34.1,-803.63 1025.14,-1212.98 1680.5,-1091.45 31.11,5.77 29.5,54.4 0,61.27"
         style="fill:#ecd386;fill-opacity:1;fill-rule:nonzero;stroke:none"
         id="path162" />
      <path
         d="m 8538.78,8474.59 c -0.1,25.52 -17.26,45.1 -40.43,53.12 -40.8,14.09 -77.2,-2.02 -118.45,0.05 -34.71,1.75 -73.37,0.92 -105.34,16.49 -108.68,52.91 -191.77,-91.57 -94.08,-160.95 61.14,-43.4 143.9,-68.4 217.76,-46.2 66.01,19.9 140.86,59.7 140.54,137.49"
         style="fill:#ecd386;fill-opacity:1;fill-rule:nonzero;stroke:none"
         id="path164" />
      <path
         d="m 10595.6,9582.67 c -9.6,12.06 -30.3,4.66 -33.7,-8.89 -41.4,-168.44 -58,-356.64 -159.9,-501.15 -121.4,-172.16 -273.1,-227.99 -454.24,-315.36 -98.24,-47.4 -44.52,-192.8 52.94,-195.4 456.1,-12.17 901.3,632.11 594.9,1020.8"
         style="fill:#ecd386;fill-opacity:1;fill-rule:nonzero;stroke:none"
         id="path166" />
      <path
         d="m 11945.7,8334.5 c -41.2,71.5 -80.7,142.93 -106.1,221.96 -27.6,85.85 -34.4,171.4 -80.4,250.47 -51,87.49 -188,69.25 -214.9,-28.07 -54.4,-196.41 88,-443.96 222.5,-582.46 146.8,-151 360.7,-245.7 565.6,-278.3 18.4,-2.9 33.8,23.2 13.8,32.9 -179,87.6 -301.7,212.2 -400.5,383.5"
         style="fill:#ecd386;fill-opacity:1;fill-rule:nonzero;stroke:none"
         id="path168" />
      <path
         d="m 12951.5,7863.2 c -47,8.3 -93.7,31.1 -140.5,40.9 -49.3,10.3 -101.4,9 -151.2,18.2 -107.1,19.9 -154.4,-140 -45.6,-165.4 55.7,-13.1 115.9,-27.1 173.4,-27.1 59.9,0 109.8,28.8 163.9,47.7 37.6,13 46.8,77.5 0,85.7"
         style="fill:#ecd386;fill-opacity:1;fill-rule:nonzero;stroke:none"
         id="path170" />
      <path
         d="m 16033.3,9105.5 c 64.1,-138.76 87.4,-253.25 38,-402.07 -34.9,-105.36 -122.5,-192.39 -144.3,-300.13 -11.7,-57.6 38.4,-125.8 102.9,-102.9 316.5,112.23 215.8,641.94 36.7,830.76 -17.6,18.52 -42.9,-4.93 -33.3,-25.66"
         style="fill:#ecd386;fill-opacity:1;fill-rule:nonzero;stroke:none"
         id="path172" />
      <path
         d="m 15944.7,9409.38 c -1.6,7.56 -3.3,15.07 -5.5,22.49 -1.3,4.11 -2.6,8.15 -4.1,12.19 1.7,27.27 -18,55.04 -36.3,71.99 -32.6,30.03 -67.3,46.72 -110.7,54.36 -33.7,5.92 -67.7,-6.2 -81.2,-39.86 -13.1,-32.51 -1.4,-66.94 28.1,-85.98 16.9,-10.9 33.5,-26.65 56.4,-41.03 19.6,-12.3 36.3,-23.02 55.9,-27.17 -0.3,-0.26 9.2,-4.1 12.1,-5.86 6.3,-3.89 12.4,-8.16 18.4,-12.57 34.7,-25.26 74.5,16.3 66.9,51.44"
         style="fill:#ecd386;fill-opacity:1;fill-rule:nonzero;stroke:none"
         id="path174" />
      <path
         d="m 5508.64,10007.7 c -450.56,28.5 -893.31,-235.11 -1212.41,-533.04 -137.24,-128.12 -362.9,-358.62 -397.97,-551.07 -21.21,-116.44 73,-240.35 197.35,-192.66 25.48,9.76 46.71,26.03 61.08,46.51 59.24,62.35 124.72,171.45 179.76,246.11 96.62,131.09 209.52,254.69 330.06,363.87 256.88,232.69 566.76,366.27 866.19,531.48 43.64,24.06 20.89,86 -24.06,88.8"
         style="fill:#ffffff;fill-opacity:1;fill-rule:nonzero;stroke:none"
         id="path176" />
      <path
         d="m 5947.42,10028.3 c 107.69,0 107.86,167.4 0,167.4 -107.66,0 -107.84,-167.4 0,-167.4"
         style="fill:#ffffff;fill-opacity:1;fill-rule:nonzero;stroke:none"
         id="path178" />
      <path
         d="m 10946,10449.3 c 241.1,1.7 482.8,3.1 723.8,-7.9 248.2,-11.3 491.7,-63.3 738.5,-75.1 91,-4.3 108.6,115 43.3,159.9 -292.9,201.2 -716,231.1 -1061.8,239.6 -340.9,8.3 -686.8,-31.4 -1027,-19.9 -13.4,8.1 -28.1,13.9 -43.2,15.8 -6.3,0.8 -12.6,1.6 -18.9,2.4 -35.8,4.5 -81.2,-24 -96.7,-55.5 -166,-336.7 594.9,-260.4 742,-259.3"
         style="fill:#ffffff;fill-opacity:1;fill-rule:nonzero;stroke:none"
         id="path180" />
      <path
         d="m 12875.1,10396.6 c 14.1,-14.1 30.8,-23.8 50,-29.2 l 41.6,-16.7 c 31.3,-12.6 72.3,-9 99.9,12.5 21.8,12.4 40.5,36 37.7,61.4 -2.2,-18.4 -1.5,-12.9 2.3,16.3 0.3,10.5 -1.3,20.6 -4.9,30.2 -6.4,21.5 -18.8,37.3 -34.1,52.9 -10.8,10.9 -21.5,21.9 -32.3,32.9 -51.3,52.2 -141.5,39.4 -178,-23 -14.8,-25.4 -19.2,-59 -11.4,-87.3 5.4,-19.2 15.1,-35.9 29.2,-50"
         style="fill:#ffffff;fill-opacity:1;fill-rule:nonzero;stroke:none"
         id="path182" />
      <path
         d="m 17093.6,9314.91 c -124.4,154.32 -270.3,243.99 -447.2,317.73 -49.4,20.57 -85.2,-23.27 -87.4,-67.74 2.2,-0.74 4.4,-1.24 6.6,-2 46.9,-17.2 83.2,-37.16 112.8,-78.3 21.5,-29.91 19.6,-63.74 5.1,-92.45 71.5,-83.66 140.7,-171.32 205,-257.57 92.9,-124.68 148.6,-286.15 252.5,-398.48 89.5,-96.63 233.6,30.69 191,124.96 -20.6,163.09 -140.4,332.24 -238.4,453.85"
         style="fill:#ffffff;fill-opacity:1;fill-rule:nonzero;stroke:none"
         id="path184" />
      <path
         d="m 14214.7,8135.6 c -13,5.1 -26,10.2 -39,15.2 -8.7,1.2 -17.5,2.4 -26.2,3.6 -8.7,-1.2 -17.4,-2.4 -26.2,-3.6 -20.6,-4.6 -38.6,-19 -51.1,-35.3 -11,-14.1 -17,-28.8 -19.4,-46.5 -2.8,-21 -0.2,-44.5 11.7,-62.8 18.6,-28.9 50,-48.8 85,-48.8 42.6,0 84.3,30.5 95,72.3 3.2,12.3 6.3,24.6 9.4,36.9 3.6,13.6 2.2,31.1 -5.6,43.2 -8.4,13 -19.2,20.2 -33.6,25.8"
         style="fill:#72bd2d;fill-opacity:1;fill-rule:nonzero;stroke:none"
         id="path186" />
      <path
         d="m 11513.6,9859.81 c 9.3,8.64 15.9,18.87 19.7,30.69 6,11.36 8.8,23.6 8.3,36.73 -1.2,8.43 -2.3,16.88 -3.4,25.34 -4.6,16.15 -12.8,30.15 -24.6,42.05 -18.6,17.08 -41.5,27.98 -67.4,27.98 -13.1,0.4 -25.3,-2.3 -36.7,-8.3 -11.8,-3.8 -22,-10.4 -30.7,-19.68 -9.3,-8.63 -15.8,-18.86 -19.7,-30.67 -5.9,-11.37 -8.7,-23.61 -8.2,-36.72 1.2,-8.46 2.3,-16.9 3.4,-25.35 4.5,-16.15 12.7,-30.17 24.5,-42.07 18.7,-17.11 41.6,-27.91 67.4,-27.91 13.2,-0.5 25.4,2.25 36.8,8.2 11.8,3.85 22,10.42 30.6,19.71"
         style="fill:#72bd2d;fill-opacity:1;fill-rule:nonzero;stroke:none"
         id="path188" />
      <path
         d="m 13516.8,10353.7 c 55.5,0 108.2,3.4 163.2,10.2 50.1,6.3 93.6,38.5 93.6,93.6 0,55.8 -43.2,87.3 -93.6,93.6 -55,6.8 -107.7,10.2 -163.2,10.2 -56.1,0 -103.8,-47.7 -103.8,-103.8 0,-56.3 47.5,-103.8 103.8,-103.8"
         style="fill:#72bd2d;fill-opacity:1;fill-rule:nonzero;stroke:none"
         id="path190" />
      <path
         d="m 16678.4,9484.6 c -29.6,41.14 -65.9,61.1 -112.8,78.3 -2.2,0.76 -4.4,1.26 -6.6,2 -26.5,9.13 -54.1,15.57 -81.2,22.91 -58.2,15.84 -128.1,-19.71 -142,-80.61 -14.7,-64.76 19.7,-120.31 80.7,-142.01 61.1,-21.78 134.6,-56.45 199.8,-33.26 28,9.97 53.3,32.78 67.2,60.22 14.5,28.71 16.4,62.54 -5.1,92.45"
         style="fill:#72bd2d;fill-opacity:1;fill-rule:nonzero;stroke:none"
         id="path192" />
      <path
         d="m 10955,8442.42 c -52.8,-25.99 -101.8,-61.12 -144.5,-101.62 -30.3,-28.8 -51.5,-64.4 -57,-106.3 -3.5,-15.8 -2.8,-31.6 2.2,-47.4 -4.7,16.2 -5.4,15.5 -2.1,-2 2.8,-18.6 7.1,-31.8 6.3,-50.7 -1.7,-38.5 49.5,-73 82.9,-47.6 4.7,3.6 9.6,6.9 14.4,10.3 3.7,0.4 7.5,-0.2 11.2,0.5 15.7,1.4 18.3,2 7.8,2 -16.5,0.2 -8,1.7 25.7,4.4 9.4,4 18.9,8 28.4,12 25,12.7 44.3,30.6 63.6,50.4 5.9,6 11.9,11.9 18.1,17.6 -0.3,-0.3 12.5,10.7 16.5,14.3 4.5,3 16.3,11.5 18,12.6 10.5,6.9 21.5,13.2 32.5,19.4 57.9,32.2 77.1,111.6 44.1,168 -35.5,60.73 -108.4,73.53 -168.1,44.12"
         style="fill:#72bd2d;fill-opacity:1;fill-rule:nonzero;stroke:none"
         id="path194" />
      <path
         d="m 5073.42,9075.92 c -30.25,-10.87 -62.67,-19.99 -90.49,-36.12 -24.28,-14.07 -47.25,-31.26 -70.64,-46.75 -36.79,-24.35 -54.78,-69.29 -36.41,-111.09 16.18,-36.82 63.22,-68.21 104.96,-51.52 25.77,10.31 51.6,20.48 77.32,30.92 31.78,12.89 56.6,31.07 84.28,50.82 36.26,25.86 55.66,68.67 36.66,111.87 -16.76,38.12 -63,67.2 -105.68,51.87"
         style="fill:#72bd2d;fill-opacity:1;fill-rule:nonzero;stroke:none"
         id="path196" />
      <path
         d="m 6649.95,8106.5 c 17.83,140.1 -196.61,169 -291.37,191.6 -84.94,20.2 -169.16,-32.5 -181.07,-120.6 -12.38,-91.6 55.48,-156.6 142.51,-164.4 93.11,-8.4 312,-47.2 329.93,93.4"
         style="fill:#72bd2d;fill-opacity:1;fill-rule:nonzero;stroke:none"
         id="path198" />
      <path
         d="m 6216.13,10098.3 c 9.68,5.7 19.74,11 29.17,17.1 20.71,13.5 34.52,32.1 42.77,55.4 1.41,4 2.58,8.1 3.88,12.1 5.5,17.1 2.28,42 -7.47,57.1 -10.76,16.7 -25.28,27.8 -44.3,34.1 -3.96,1.3 -7.89,2.7 -11.91,3.9 -7.22,2.1 -18.73,3.5 -26.25,3.5 -17.21,-0.1 -30.95,-5.4 -46.63,-12.3 -10.41,-4.5 -20.8,-9 -31.2,-13.6 -19.5,-8.5 -36.48,-34.9 -41.87,-54.4 -5.99,-21.8 -3.29,-50.8 9.19,-70.2 26.69,-41.4 80.65,-58.5 124.62,-32.7"
         style="fill:#72bd2d;fill-opacity:1;fill-rule:nonzero;stroke:none"
         id="path200" />
      <path
         d="m 9494.39,8091.3 c 10.29,19.4 13.45,40.3 8.11,62 -0.86,3.5 -1.65,7 -2.58,10.5 -6.13,22.9 -19.62,40.7 -38.02,54.9 -11.8,9.2 -24.25,17.2 -36.69,25.4 -22.58,15 -51.96,16 -77.52,10.1 -30.26,-6.8 -53.57,-30.6 -65.21,-58.2 -10.94,-25.9 -10.94,-51.6 0,-77.5 12.73,-30.2 34.83,-47.3 65.21,-58.3 9.9,-3.6 19.77,-7.7 29.85,-10.8 23.92,-7.2 46.55,-4.3 68.75,4.9 19.33,7.9 37.77,17.4 48.1,37"
         style="fill:#72bd2d;fill-opacity:1;fill-rule:nonzero;stroke:none"
         id="path202" />
      <path
         d="m 11349.9,9595.19 c -51.2,39.54 -144,44.86 -188.4,-11.23 -11.3,-14.17 -22.4,-28.27 -33.4,-42.4 -41.8,21.55 -90.4,25.43 -135.6,-3.69 -66.2,-42.69 -96.7,-132.23 -53.2,-202.87 24,-38.95 48,-77.9 72,-116.85 64,-103.85 203,-96.5 268.5,0 41.8,61.69 74.2,125.09 107,191.97 31.8,64.82 22.1,139.42 -36.9,185.07"
         style="fill:#f36335;fill-opacity:1;fill-rule:nonzero;stroke:none"
         id="path204" />
      <path
         d="m 8550.5,9418.19 c 0.83,-0.66 1.7,-1.25 2.51,-1.92 3.83,-1.14 4.3,-1 -2.51,1.92"
         style="fill:#f36335;fill-opacity:1;fill-rule:nonzero;stroke:none"
         id="path206" />
      <path
         d="m 5960.07,8672.73 c -22.13,10.99 -44.55,21.53 -66.35,33.14 -37.14,19.78 -71.46,27.54 -111.7,39.13 -156.05,44.99 -262.96,-191.13 -112.62,-267.14 36.16,-18.26 74.55,-38.11 114.87,-43.53 9.48,-1.28 85.12,6.58 51.83,1.92 21.18,2.96 45.64,4.58 66.88,10.02 56.76,14.58 133.9,51.53 142.97,116.27 7.98,57 -41.11,88 -85.88,110.19"
         style="fill:#f36335;fill-opacity:1;fill-rule:nonzero;stroke:none"
         id="path208" />
      <path
         d="m 15404.8,9813.27 c 40.9,-31.77 64.5,-43.98 98.8,-74.37 54.9,-48.63 138.1,-54.11 192.2,0 55.9,55.92 46.9,135.46 0,192.13 -79.8,96.17 -173.3,153.57 -289.2,197.67 -62.2,23.8 -136.9,-21.2 -159.9,-78.5 -24.5,-60.84 -4.7,-135.9 55.5,-169.25 18.3,-10.16 36.3,-20.69 53.8,-32.2 8.8,-5.77 17.5,-11.75 26,-17.89 21.7,-15.56 -2.8,2.38 22.8,-17.59"
         style="fill:#f36335;fill-opacity:1;fill-rule:nonzero;stroke:none"
         id="path210" />
      <path
         d="m 9225.68,10944.5 c -250.03,98.9 -528.34,158.2 -821.97,158.2 -82.13,0 -162.97,-5 -242.45,-13.8 -17.86,3.6 -36.59,1.4 -52.88,-6.5 -366.03,-49.5 -698.8,-187.3 -968.9,-372.1 -348.31,-238.3 -592.49,-554.4 -668.95,-858.88 -17.17,-66.88 -25.76,-133.3 -25.76,-197.92 0,-183.92 70.49,-335.76 196.57,-459.58 317.67,-311.79 987.39,-441.06 1762.37,-441.06 824.26,0 1530.12,146.42 1818.89,502.98 19,23.5 36.1,47.44 51.5,72.73 57.4,94.92 88.6,202.91 88.6,324.93 0,472.8 -465.87,1025.6 -1137.02,1291"
         style="fill:#fbca18;fill-opacity:1;fill-rule:nonzero;stroke:none"
         id="path212" />
      <path
         d="m 14253.9,8066.6 c -3.1,-12.3 -6.2,-24.6 -9.4,-36.9 -10.7,-41.8 -52.4,-72.3 -95,-72.3 -35,0 -66.4,19.9 -85,48.8 -11.9,18.3 -14.5,41.8 -11.7,62.8 2.4,17.7 8.4,32.4 19.4,46.5 12.5,16.3 30.5,30.7 51.1,35.3 8.8,1.2 17.5,2.4 26.2,3.6 8.7,-1.2 17.5,-2.4 26.2,-3.6 13,-5 26,-10.1 39,-15.2 14.4,-5.6 25.2,-12.8 33.6,-25.8 7.8,-12.1 9.2,-29.6 5.6,-43.2 z m -387.7,2163.5 c -1049.8,0 -1901.1,-776.34 -1901.1,-1406.27 0,-120.21 30.7,-225.95 88.1,-319.5 28.5,-45.18 62.8,-87.66 102.6,-126.53 308.2,-302.8 958,-427.9 1710.4,-427.9 740.2,0 1380.9,121.1 1695,413.4 25.8,23.6 48.8,48.4 70.1,74.61 87.6,108 136,235.88 136,385.92 0,629.93 -851.4,1406.27 -1901.1,1406.27"
         style="fill:#fbca18;fill-opacity:1;fill-rule:nonzero;stroke:none"
         id="path214" />
      <path
         d="m 7478.94,9531.71 c -48.19,-55.4 -99.78,-105.26 -153.14,-155.68 -43.51,-41.12 -111.82,-37.54 -148.57,10.07 -39.8,51.58 -19.17,110.52 27.93,146.3 57.97,44.02 115.1,86.45 177.14,124.55 23.73,14.58 56.78,14.63 80.5,0 19.49,-12 28.38,-26.51 36.64,-47.65 10.6,-27.07 -3.02,-57.48 -20.5,-77.59 z m 2803.96,-175.09 c 60.1,207.69 -139.7,371.37 -320.23,326.21 9.03,-37.81 0.06,-75.23 -33.15,-101.67 -36.58,-29.15 -86.39,-25.65 -122.02,2.1 -37.03,-33.53 -74.78,-66.11 -115.45,-94.72 -308.4,-217.17 -703.71,-203.05 -1085.78,-134.13 5.58,-19.27 6.64,-40.7 1.21,-59.74 -1.42,-4.98 -3.39,-11.14 -5.72,-17.1 -8.32,-37.7 -33.99,-76.31 -66.74,-91.61 -4.75,-3.67 -9.64,-7.44 -16.74,-12.91 -24.3,-14.09 -50.51,-21.18 -78.62,-21.27 -21.53,-0.52 -44.35,3.23 -65.06,8.13 -41.24,9.77 -77.64,28.56 -109.68,56.5 -52.83,46.05 -88.57,119.15 -82.5,190.29 1.14,13.46 3.99,26.07 7.57,38.25 -222.81,53.3 -445.09,113.15 -648.93,216.23 -150.48,75.92 -289.21,174.43 -443.76,241.31 -154.56,67.33 -333.5,101.21 -491.22,41.11 -56.93,-21.67 -101.67,-53.32 -135.55,-92.18 -17.17,-66.88 -25.76,-133.3 -25.76,-197.92 0,-183.92 70.49,-335.76 196.57,-459.58 317.67,-311.79 987.39,-441.06 1762.37,-441.06 824.26,0 1530.12,146.42 1818.89,502.98 19,23.5 36.1,47.44 51.5,72.73 2.7,7.25 5,14.94 7.2,22.6 0.6,1.82 1.1,3.62 1.6,5.45"
         style="fill:#f9b119;fill-opacity:1;fill-rule:nonzero;stroke:none"
         id="path216" />
      <path
         d="m 14253.9,8066.6 c -3.1,-12.3 -6.2,-24.6 -9.4,-36.9 -10.7,-41.8 -52.4,-72.3 -95,-72.3 -35,0 -66.4,19.9 -85,48.8 -11.9,18.3 -14.5,41.8 -11.7,62.8 2.4,17.7 8.4,32.4 19.4,46.5 12.5,16.3 30.5,30.7 51.1,35.3 8.8,1.2 17.5,2.4 26.2,3.6 8.7,-1.2 17.5,-2.4 26.2,-3.6 13,-5 26,-10.1 39,-15.2 14.4,-5.6 25.2,-12.8 33.6,-25.8 7.8,-12.1 9.2,-29.6 5.6,-43.2 z m 1405.8,859.35 c -223.7,79.09 -436,-122.91 -638.9,-245.82 -344.1,-208.54 -774.1,-202.5 -1171.1,-122.35 -15.3,-3.33 -30.7,-5.14 -48.8,-8.54 12.3,2.31 6,-0.09 -2.4,-1.75 -17.4,-3.46 -35.3,-5.4 -53.1,-5.07 -63.9,1.18 -121.5,46.31 -174.5,77.98 -3.8,2.24 -6.7,5.08 -10.2,7.53 -310.4,84.08 -617.3,185.8 -934.7,227.69 20.1,-14.93 34.6,-38.81 33,-63.59 -7,-109.35 -26.8,-212.79 -88.3,-305.25 -28.5,-42.77 -77.7,-60.47 -125.7,-41.16 -50.6,20.35 -65,68.96 -58.3,118.7 13.8,101.84 62.5,187.2 124.3,267.81 10.7,14.01 23.8,25.5 38.7,32.36 -12.9,1.29 -25.7,3.47 -38.7,4.52 -155.5,12.66 -338.1,-4.97 -425.3,-134.66 -40.6,-60.56 -47,-142.35 -32.5,-230.02 28.5,-45.18 62.8,-87.66 102.6,-126.53 308.2,-302.8 958,-427.9 1710.4,-427.9 740.2,0 1380.9,121.1 1695,413.4 109.4,167.7 160,374.66 98.5,562.65"
         style="fill:#f9b119;fill-opacity:1;fill-rule:nonzero;stroke:none"
         id="path218" />
      <path
         d="m 8218.23,10820.1 c 11.37,-35.4 21.71,-63.4 0.8,-98.4 -16.59,-27.8 -41.18,-37.5 -72.28,-39.4 -30.18,-1.8 -59.04,17.8 -74.22,42.6 -37.89,61.9 -50.43,130.7 -41.65,198.3 -331.34,-64.4 -663.57,-232.3 -869.16,-455.6 -162.45,-88.1 -47.76,-459.1 186.33,-317.9 199.03,120.1 378.45,269 583.08,381.9 199.87,110.3 415.51,175.2 618.95,275 51.8,25.4 40.5,114.5 -16.44,125.8 -101.57,20.1 -211.7,23.9 -324.65,15.1 -10.76,-41.7 -3.74,-87.1 9.24,-127.4"
         style="fill:#f8ed56;fill-opacity:1;fill-rule:nonzero;stroke:none"
         id="path220" />
      <path
         d="m 12830.8,9211.09 c 145.9,133.96 278.3,278.16 435.3,401.19 147.4,115.49 333.6,195.91 455.2,340.57 21.5,25.55 17.6,73.95 -21.5,81.45 -212.6,40.7 -424.6,-66.76 -606.6,-166.65 -209.1,-114.77 -409.6,-273.01 -545.4,-470.63 -124.5,-181.29 182.5,-341.34 283,-185.93"
         style="fill:#f8ed56;fill-opacity:1;fill-rule:nonzero;stroke:none"
         id="path222" />
      <path
         d="m 14073.6,9848.3 c 23.7,-3.82 46.2,-7.29 70.1,-4.66 29.6,3.26 60.6,3.62 85.9,21.66 29.7,21.2 50,49.07 50,87.17 0,38.09 -20.3,65.93 -50,87.13 -25.3,18.1 -56.3,18.5 -85.9,21.7 -23.9,2.6 -46.4,-0.8 -70.1,-4.7 -8.6,-3.6 -17.2,-7.2 -25.8,-10.8 -12.6,-6.8 -22.7,-16.1 -30.3,-27.9 -14.1,-18.18 -24.2,-41.77 -23.2,-65.43 0.9,-19.17 5.8,-37.55 14.8,-54.52 11.1,-20.95 40.5,-45.77 64.5,-49.65"
         style="fill:#f8ed56;fill-opacity:1;fill-rule:nonzero;stroke:none"
         id="path224" />
      <path
         d="m 9136.38,10813.3 c -2.42,0.7 -36.02,8.7 -42.85,6.5 -1.29,0.3 -2.59,0.6 -3.85,1 -1.55,0.5 -2.23,0.6 -3.29,0.8 -1.39,0.8 -2.66,1.7 -4.01,2.5 -0.26,0.3 -0.3,0.3 -0.59,0.6 -39.72,37.9 -109.37,42.4 -148.29,0 -34.43,-37.5 -46.32,-112.4 0,-148.3 30.04,-23.3 60.64,-43.8 98.9,-51 39.79,-7.5 92.56,-8.8 126.3,17 30.83,23.6 50.14,52.3 44.64,93.2 -4.89,36.5 -30.96,67.6 -66.96,77.7"
         style="fill:#f8ed56;fill-opacity:1;fill-rule:nonzero;stroke:none"
         id="path226" />
      <path
         d="m 14681.4,9396.04 c 33,-51.17 96.2,-75.46 153.5,-50.29 52.1,22.89 92.5,86.56 71.1,145 -23,62.95 -53.4,121.95 -93.2,175.96 -49,66.73 -106.2,102.7 -182.8,132.24 -90.9,35.01 -173.5,-85.01 -124.7,-162.17 54.1,-85.48 120.8,-155.04 176.1,-240.74"
         style="fill:#72bd2d;fill-opacity:1;fill-rule:nonzero;stroke:none"
         id="path228" />
      <path
         d="m 12511,8832.13 c -61.8,-80.61 -110.5,-165.97 -124.3,-267.81 -6.7,-49.74 7.7,-98.35 58.3,-118.7 48,-19.31 97.2,-1.61 125.7,41.16 61.5,92.46 81.3,195.9 88.3,305.25 1.6,24.78 -12.9,48.66 -33,63.59 -7.9,5.81 -16.3,10.53 -25.3,12.99 -18.6,5.14 -35.7,2.91 -51,-4.12 -14.9,-6.86 -28,-18.35 -38.7,-32.36"
         style="fill:#72bd2d;fill-opacity:1;fill-rule:nonzero;stroke:none"
         id="path230" />
      <path
         d="m 9929.52,9581.16 c 33.21,26.44 42.18,63.86 33.15,101.67 -2.03,8.44 -3.94,16.89 -7.8,25.26 -27.77,60.02 -76.83,113.65 -116.03,166.86 -32.85,44.62 -89.07,66.97 -140.56,36.87 -44.46,-26.02 -69.39,-95.27 -36.85,-140.57 43.56,-60.66 84.01,-131.68 138.9,-182.39 2.26,-2.09 4.78,-3.74 7.17,-5.6 35.63,-27.75 85.44,-31.25 122.02,-2.1"
         style="fill:#72bd2d;fill-opacity:1;fill-rule:nonzero;stroke:none"
         id="path232" />
      <path
         d="m 8074.07,11050.8 c -23.03,-40.4 -37.49,-83.7 -43.19,-127.6 -8.78,-67.6 3.76,-136.4 41.65,-198.3 15.18,-24.8 44.04,-44.4 74.22,-42.6 31.1,1.9 55.69,11.6 72.28,39.4 20.91,35 10.57,63 -0.8,98.4 -12.98,40.3 -20,85.7 -9.24,127.4 1.81,7.1 2.95,14.2 5.91,21 17.59,40.4 11.88,87.5 -29.26,111.6 -7.65,4.5 -15.93,7.1 -24.38,8.8 -17.86,3.6 -36.59,1.4 -52.88,-6.5 -14.04,-6.7 -26.24,-17.4 -34.31,-31.6"
         style="fill:#72bd2d;fill-opacity:1;fill-rule:nonzero;stroke:none"
         id="path234" />
      <path
         d="m 7462.8,9656.95 c -23.72,14.63 -56.77,14.58 -80.5,0 -62.04,-38.1 -119.17,-80.53 -177.14,-124.55 -47.1,-35.78 -67.73,-94.72 -27.93,-146.3 36.75,-47.61 105.06,-51.19 148.57,-10.07 53.36,50.42 104.95,100.28 153.14,155.68 17.48,20.11 31.1,50.52 20.5,77.59 -8.26,21.14 -17.15,35.65 -36.64,47.65"
         style="fill:#72bd2d;fill-opacity:1;fill-rule:nonzero;stroke:none"
         id="path236" />
      <path
         d="m 8468.21,9458.41 c -0.02,0.04 -0.03,0.08 -0.04,0.11 4.64,-2.6 6.27,-3.83 0.04,-0.11 z m 8.3,-26.06 c 0.31,-0.81 0.47,-1.2 0.74,-1.9 0.36,-3.62 1.62,-11.42 3.83,-23.75 -0.87,8.62 -2.54,17.2 -4.57,25.65 z m 42.91,-4.68 c 0.44,-0.25 0.87,-0.5 1.31,-0.76 -0.53,0.17 -1.37,0.43 -1.68,0.51 -32.14,7.87 -7.44,1.69 0.37,0.25 z m -254.5,-211.26 c 32.04,-27.94 68.44,-46.73 109.68,-56.5 20.71,-4.9 43.53,-8.65 65.06,-8.13 28.11,0.09 54.32,7.18 78.62,21.27 7.1,5.47 11.99,9.24 16.74,12.91 32.75,15.3 58.42,53.91 66.74,91.61 2.33,5.96 4.3,12.12 5.72,17.1 5.43,19.04 4.37,40.47 -1.21,59.74 -1.37,4.71 -2.77,9.41 -4.68,13.78 -6.66,15.29 -15.43,27.02 -28.67,37.24 -2.13,1.65 -11.23,6.23 -18.86,10.04 -0.33,0.28 -0.71,0.52 -1.05,0.8 -0.5,0.16 -0.7,0.19 -1.3,0.37 -1.77,0.89 -3.25,1.65 -4.59,2.32 -0.42,0.4 -0.84,0.79 -1.26,1.17 1.07,-0.43 2.05,-0.83 4.07,-1.69 0.29,-0.12 0.29,-0.12 0.57,-0.25 -6.44,5.07 -12.75,10.11 -19.86,14.01 -18.35,12.59 -38.37,20.92 -61.11,27.59 -0.37,0.11 -1.48,0.56 -2.05,0.76 -22.44,55.07 -69.95,98.44 -135.73,95.49 -72.66,-3.26 -123.07,-47.59 -141.76,-111.09 -3.58,-12.18 -6.43,-24.79 -7.57,-38.25 -6.07,-71.14 29.67,-144.24 82.5,-190.29"
         style="fill:#f36335;fill-opacity:1;fill-rule:nonzero;stroke:none"
         id="path238" />
      <path
         d="m 13745.4,8542.42 c 17.8,-0.33 35.7,1.61 53.1,5.07 8.4,1.66 14.7,4.06 2.4,1.75 18.1,3.4 33.5,5.21 48.8,8.54 11.5,2.47 22.8,5.68 35.4,11.54 24.3,11.39 44.3,45.98 41.7,72.75 -2.7,28.42 -10,50.69 -21.9,76.55 -0.9,1.97 -1.4,3.03 -1.9,4.11 -0.1,0.26 -0.1,0.29 -0.2,0.57 -7.2,17.82 -12.6,36.31 -23.4,52.54 -36,54.19 -98.2,79.6 -153.5,109.78 -70.5,38.5 -170.6,19.67 -210.1,-55.09 -37.3,-70.45 -20,-156.38 44.9,-202.6 3.5,-2.45 6.4,-5.29 10.2,-7.53 53,-31.67 110.6,-76.8 174.5,-77.98"
         style="fill:#f36335;fill-opacity:1;fill-rule:nonzero;stroke:none"
         id="path240" />
    </g>
  </g>
</svg>
