<?xml version="1.0" encoding="UTF-8" standalone="no"?>
<!-- Created with Inkscape (http://www.inkscape.org/) -->

<svg
   version="1.1"
   id="svg2"
   width="2829.3333"
   height="2829.3333"
   viewBox="0 0 2829.3333 2829.3333"
   xmlns="http://www.w3.org/2000/svg"
   xmlns:svg="http://www.w3.org/2000/svg">
  <defs
     id="defs6" />
  <g
     id="g10"
     transform="matrix(1.3333333,0,0,-1.3333333,0,2829.3333)">
    <g
       id="g12"
       transform="scale(0.1)">
      <path
         d="m 19204.8,7898 c 0,-1975.7 -3849.5,-3577.4 -8598.2,-3577.4 -4748.68,0 -8598.22,1601.7 -8598.22,3577.4 0,1975.7 3849.54,3577.3 8598.22,3577.3 4748.7,0 8598.2,-1601.6 8598.2,-3577.3"
         style="fill:#b39671;fill-opacity:1;fill-rule:nonzero;stroke:none"
         id="path14" />
      <path
         d="m 20524.2,9562.6 c 0,-2457.1 -4440.3,-4449 -9917.6,-4449 -5477.31,0 -9917.573,1991.9 -9917.573,4449 0,2457.2 4440.263,4449 9917.573,4449 5477.3,0 9917.6,-1991.8 9917.6,-4449"
         style="fill:#edd3b1;fill-opacity:1;fill-rule:nonzero;stroke:none"
         id="path16" />
      <path
         d="m 19858.4,9562.6 c 0,-2292.1 -4142.1,-4150.4 -9251.8,-4150.4 -5109.63,0 -9251.81,1858.3 -9251.81,4150.4 0,2292.2 4142.18,4150.3 9251.81,4150.3 5109.7,0 9251.8,-1858.1 9251.8,-4150.3"
         style="fill:#e5c191;fill-opacity:1;fill-rule:nonzero;stroke:none"
         id="path18" />
      <path
         d="m 3496.89,8821.1 c 0,2292.2 4142.18,4150.3 9251.81,4150.3 1640.3,0 3180.5,-191.7 4516.4,-527.5 -1682.7,782.3 -4043.7,1269 -6658.5,1269 -5109.63,0 -9251.81,-1858.1 -9251.81,-4150.3 0,-1556.3 1909.98,-2912.4 4735.45,-3622.8 -1605.46,746.5 -2593.35,1762.1 -2593.35,2881.3"
         style="fill:#cbaa80;fill-opacity:1;fill-rule:nonzero;stroke:none"
         id="path20" />
      <path
         d="m 17911.9,8571.3 c 0,-1135.7 -2429.7,-3159.1 -5905.6,-3159.1 -3475.75,0 -8452.55,1873.2 -8452.55,3008.9 0,1135.8 3941.99,1326.4 7417.75,1326.4 3475.9,0 6940.4,-40.4 6940.4,-1176.2"
         style="fill:#bb9d76;fill-opacity:1;fill-rule:nonzero;stroke:none"
         id="path22" />
      <path
         d="m 18197.8,9536.6 c 0,-1870 -3422.6,-3994.7 -7544.7,-3385.9 -4481.51,661.8 -7544.7,1515.9 -7544.7,3385.9 0,1869.9 3377.87,3385.8 7544.7,3385.8 4166.8,0 7544.7,-1515.9 7544.7,-3385.8"
         style="fill:#f8e267;fill-opacity:1;fill-rule:nonzero;stroke:none"
         id="path24" />
      <path
         d="m 18197.8,10099.3 c 0,-1870 -3422.6,-3994.7 -7544.7,-3385.9 -4481.51,661.9 -7544.7,1515.9 -7544.7,3385.9 0,1869.9 3377.87,3385.8 7544.7,3385.8 4166.8,0 7544.7,-1515.9 7544.7,-3385.8"
         style="fill:#f68520;fill-opacity:1;fill-rule:nonzero;stroke:none"
         id="path26" />
      <path
         d="m 17561.7,11461.6 c 89.1,-208.1 136.3,-422.9 136.3,-642.6 0,-1870 -3422.6,-3994.7 -7544.7,-3385.9 -3310.68,489 -5846.93,1082.9 -6946.44,2113.7 556.1,-1493.3 3431.93,-2240.5 7446.24,-2833.4 4122.1,-608.8 7544.7,1515.9 7544.7,3385.9 0,484.6 -227.4,945.4 -636.1,1362.3"
         style="fill:#f47322;fill-opacity:1;fill-rule:nonzero;stroke:none"
         id="path28" />
      <path
         d="M 10653.1,6986.1 C 7146.53,7504 4508.78,8139.6 3526.96,9287.5 c -117.08,83.3 -224.36,169.5 -320.1,259.3 556.1,-1493.3 3431.93,-2240.5 7446.24,-2833.4 4122.1,-608.8 7544.7,1515.9 7544.7,3385.9 0,45.5 -2.6,90.7 -6.6,135.8 -160.8,-1834.9 -3516.2,-3843 -7538.1,-3249"
         style="fill:#dd5321;fill-opacity:1;fill-rule:nonzero;stroke:none"
         id="path30" />
      <path
         d="m 3157.63,11253 c 0,-1708.8 3422.6,-3650.3 7544.77,-3094 4481.5,604.8 7544.7,1385.2 7544.7,3094 0,1708.8 -3377.9,3094.1 -7544.7,3094.1 -4166.87,0 -7544.77,-1385.3 -7544.77,-3094.1"
         style="fill:#f8e267;fill-opacity:1;fill-rule:nonzero;stroke:none"
         id="path32" />
      <path
         d="m 3157.63,11767.3 c 0,-1708.8 3422.6,-3650.4 7544.77,-3094 4481.5,604.8 7544.7,1385.2 7544.7,3094 0,1708.7 -3377.9,3094 -7544.7,3094 -4166.87,0 -7544.77,-1385.3 -7544.77,-3094"
         style="fill:#f68520;fill-opacity:1;fill-rule:nonzero;stroke:none"
         id="path34" />
      <path
         d="m 3793.8,13012.2 c -89.08,-190.2 -136.29,-386.4 -136.29,-587.3 0,-1708.7 3422.6,-3650.3 7544.69,-3094 3310.7,446.8 5846.9,989.6 6946.4,1931.5 -556.1,-1364.6 -3431.9,-2047.4 -7446.2,-2589.1 -4122.17,-556.4 -7544.77,1385.2 -7544.77,3094 0,442.9 227.41,863.9 636.17,1244.9"
         style="fill:#f47322;fill-opacity:1;fill-rule:nonzero;stroke:none"
         id="path36" />
      <path
         d="m 10702.4,8922.4 c 3506.5,473.3 6144.3,1054.2 7126.1,2103 117.1,76.2 224.4,155 320.1,237 -556.1,-1364.6 -3431.9,-2047.4 -7446.2,-2589.1 -4122.17,-556.4 -7544.77,1385.2 -7544.77,3094 0,41.6 2.65,82.9 6.63,124.1 160.77,-1676.7 3516.17,-3511.8 7538.14,-2969"
         style="fill:#dd5321;fill-opacity:1;fill-rule:nonzero;stroke:none"
         id="path38" />
      <path
         d="m 17911.9,13107.2 c 0,-1799.1 -3292.9,-3843.2 -7258.8,-3257.5 -4311.69,636.8 -7258.81,1458.4 -7258.81,3257.5 0,1799.1 3249.89,3257.6 7258.81,3257.6 4009,0 7258.8,-1458.5 7258.8,-3257.6"
         style="fill:#f8e267;fill-opacity:1;fill-rule:nonzero;stroke:none"
         id="path40" />
      <path
         d="m 17911.9,13648.6 c 0,-1799.1 -3292.9,-3843.3 -7258.8,-3257.5 -4311.69,636.8 -7258.81,1458.4 -7258.81,3257.5 0,1799.1 3249.89,3257.6 7258.81,3257.6 4009,0 7258.8,-1458.5 7258.8,-3257.6"
         style="fill:#f68520;fill-opacity:1;fill-rule:nonzero;stroke:none"
         id="path42" />
      <path
         d="m 17299.9,14959.3 c 85.7,-200.2 131.1,-406.8 131.1,-618.2 0,-1799.2 -3292.9,-3843.3 -7258.8,-3257.6 -3185.2,470.4 -5625.32,1041.9 -6683.15,2033.6 535.02,-1436.7 3301.87,-2155.6 7164.05,-2726 3965.9,-585.8 7258.8,1458.4 7258.8,3257.5 0,466.3 -218.8,909.7 -612,1310.7"
         style="fill:#f47322;fill-opacity:1;fill-rule:nonzero;stroke:none"
         id="path44" />
      <path
         d="m 10653.1,10653.4 c -3373.71,498.3 -5911.49,1109.9 -6856.11,2214.2 -112.61,80.1 -215.86,163.1 -307.94,249.5 535.02,-1436.7 3301.87,-2155.6 7164.05,-2726 3965.9,-585.8 7258.8,1458.4 7258.8,3257.5 0,43.8 -2.5,87.4 -6.3,130.7 -154.7,-1765.3 -3383,-3697.4 -7252.5,-3125.9"
         style="fill:#dd5321;fill-opacity:1;fill-rule:nonzero;stroke:none"
         id="path46" />
      <path
         d="m 8383.31,13779.9 c 0,0 -2771.98,2044.9 1545.05,2408.5 4317.04,363.5 6210.44,-874.6 6286.24,-2090.4 0,0 -577.4,-3163.9 -2758,-3825.3 -619.9,-203.9 -1814.7,-562.2 -660.2,-883.4 1154.6,-321.2 2145.7,377 1373.2,-274.6 0,0 -1628.3,-704.4 -674,-927.9 954.3,-223.5 2358.4,-405.1 1126.3,-741.2 -1232.1,-336.2 -3802.2,-527.3 -2057.9,586.2 977,863.1 -431.7,613.2 -431.7,613.2 0,0 -2272.11,272.6 -477.1,1340.5 1794.9,1067.9 -53.1,2504.5 -2340.33,1733.2 -2287.21,-771.3 -1481.01,-966.4 -1005.35,-1057.4 475.68,-90.9 1115.82,-828.9 322.14,-865.9 C 7838,9758.3 7950.5,8677.1 7065.49,9094.1 c -885.03,417 -155.96,847 840.67,805.4 996.63,-41.6 408.72,454.4 -189.32,608.5 -598.08,154.2 -666.51,636.3 30.27,908.9 696.78,272.7 2067.64,1635.9 636.2,2363"
         style="fill:#eb2f24;fill-opacity:1;fill-rule:nonzero;stroke:none"
         id="path48" />
      <path
         d="m 9314.87,11718.7 c 302.99,102.2 598.12,165.3 878.23,196 -484.81,57.7 -1060.03,8.4 -1666.14,-196 -256.41,-86.4 -467.6,-165.3 -640.36,-237.3 -48.6,-25.6 -95.4,-47.2 -139.49,-64.5 -43.28,-16.9 -83.59,-34.7 -121.05,-53.1 l -1.72,-0.9 c -259.29,-128 -378.74,-288.7 -377.76,-439 124.02,-133.1 529.28,-193.6 754.01,-236.5 475.68,-90.9 1115.79,-828.9 322.13,-866 -620,-29 -687.04,-695.1 -1108.54,-786.4 725.89,-231.7 671.42,725.5 1417.48,760.4 793.68,37 153.54,775 -322.14,865.9 -475.66,91 -1281.84,286.1 1005.35,1057.4"
         style="fill:#d1291f;fill-opacity:1;fill-rule:nonzero;stroke:none"
         id="path50" />
      <path
         d="m 13495.6,8186.8 c -954.3,223.5 674,927.9 674,927.9 772.5,651.6 -218.6,-46.6 -1373.2,274.6 -1154.5,321.2 40.3,679.5 660.2,883.4 2180.6,661.4 2758,3825.3 2758,3825.3 -65.7,1054.7 -1499.7,2125.9 -4696.7,2154 2787.3,-110.5 4272.7,-935.7 4333.1,-1904.9 0,0 -1001.7,-3413 -3182.3,-4074.4 -620,-203.9 -1814.7,-562.2 -660.2,-883.4 1154.5,-321.2 2191.4,160.2 1418.9,-491.3 0,0 -1099.5,-612.5 -145.2,-836.1 954.3,-223.5 1783.9,-280.1 551.8,-616.3 -401.6,-109.6 -945.2,-203.7 -1435.4,-242.3 567.6,-69.7 1578.5,66.4 2223.3,242.3 1232.1,336.2 -172,517.7 -1126.3,741.2"
         style="fill:#d1291f;fill-opacity:1;fill-rule:nonzero;stroke:none"
         id="path52" />
      <path
         d="m 8869.1,15157.9 c 0,0 -1042.6,-752.3 362.92,-1233.7 1405.48,-481.5 3188.98,-296.8 4057.18,-1119.7 616.1,-583.8 1587.6,547 2100.1,1253.3 212.9,293.4 150.6,705.2 -140.5,921.4 -953,708.1 -3257,1915.5 -6379.7,178.7"
         style="fill:#d1291f;fill-opacity:1;fill-rule:nonzero;stroke:none"
         id="path54" />
      <path
         d="m 8283.62,14895.1 c -111.64,-111.9 -300.26,-89.6 -378.63,47.7 -114.67,200.8 -10.42,698.1 591.93,862.4 745.86,203.4 98.27,-597.8 -213.3,-910.1"
         style="fill:#ec3c2b;fill-opacity:1;fill-rule:nonzero;stroke:none"
         id="path56" />
      <path
         d="m 8497.07,11891.4 c 295.22,142.7 643.62,597.1 643.62,1031 0,367.1 643.77,666.5 461.99,-17.9 -181.77,-684.5 -461.72,-1018.8 -1105.61,-1013.1"
         style="fill:#ec3c2b;fill-opacity:1;fill-rule:nonzero;stroke:none"
         id="path58" />
      <path
         d="m 11549.1,12239.1 c 0,0 1726.8,-585.8 1151.2,-1694.3 -575.6,-1108.6 1423.9,1143 1423.9,1143 0,0 -1106.9,-103.4 -1287.5,551.3 -180.7,654.7 -2195.4,531.9 -1287.6,0"
         style="fill:#ec3c2b;fill-opacity:1;fill-rule:nonzero;stroke:none"
         id="path60" />
      <path
         d="m 12719.7,7459 c 0,0 -640.4,-212.1 -261.7,151.4 378.7,363.5 878.5,409 787.6,106 -90.8,-302.9 -525.9,-257.4 -525.9,-257.4"
         style="fill:#ec3c2b;fill-opacity:1;fill-rule:nonzero;stroke:none"
         id="path62" />
      <path
         d="m 10197.7,14697.5 c 0,0 -242.33,-625.9 0,-656.2 242.4,-30.3 2544.8,-352.1 2635.7,-388.1 90.9,-36.1 1605.6,1551.4 1605.6,1551.4 0,0 95.7,517.7 -99.4,507.1 -195.1,-10.7 -2354.5,526.9 -2990.6,147.3 -293.9,-175.4 -1151.3,-1161.5 -1151.3,-1161.5"
         style="fill:#fce498;fill-opacity:1;fill-rule:nonzero;stroke:none"
         id="path64" />
      <path
         d="m 14339.6,15711.7 c -26.3,-1.5 -89.3,7.3 -178.5,22.2 -441.8,-455.8 -1261.6,-1289 -1327.7,-1262.8 -81.9,32.5 -1960.7,297.1 -2507.8,371.2 -78.6,-88.1 -127.9,-144.8 -127.9,-144.8 0,0 -242.33,-625.9 0,-656.2 242.4,-30.3 2544.8,-352.1 2635.7,-388.1 90.9,-36.1 1605.6,1551.4 1605.6,1551.4 0,0 95.7,517.7 -99.4,507.1"
         style="fill:#f8e267;fill-opacity:1;fill-rule:nonzero;stroke:none"
         id="path66" />
      <path
         d="m 14339.6,15711.7 c -26.3,-1.5 -89.3,7.3 -178.5,22.2 -395,-407.6 -1091.8,-1116.3 -1282.3,-1243.2 0,0 146.9,-413 39.8,-442.5 -141.9,-39.1 -136.1,-371.9 -85.2,-395 269.3,178.8 1605.6,1551.4 1605.6,1551.4 0,0 95.7,517.7 -99.4,507.1"
         style="fill:#f6ce57;fill-opacity:1;fill-rule:nonzero;stroke:none"
         id="path68" />
    </g>
  </g>
</svg>
